<?xml version="1.0" standalone="no"?>
<!DOCTYPE svg PUBLIC "-//W3C//DTD SVG 20010904//EN"
 "http://www.w3.org/TR/2001/REC-SVG-20010904/DTD/svg10.dtd">
<svg version="1.0" xmlns="http://www.w3.org/2000/svg"
 width="520.000000pt" height="520.000000pt" viewBox="0 0 520.000000 520.000000"
 preserveAspectRatio="xMidYMid meet">
<metadata>
Created by potrace 1.14, written by Peter Selinger 2001-2017
</metadata>
<g transform="translate(0.000000,520.000000) scale(0.100000,-0.100000)"
fill="#000000" stroke="none">
<path d="M390 5086 c-181 -39 -341 -201 -379 -384 -8 -37 -11 -654 -10 -2110
0 -1768 2 -2065 15 -2112 49 -185 199 -330 382 -369 38 -8 662 -11 2205 -11
1910 0 2160 2 2213 16 189 49 335 198 373 382 15 73 15 4135 0 4207 -29 134
-142 282 -259 338 -127 61 28 57 -2330 56 -1637 0 -2168 -4 -2210 -13z"/>
</g>
</svg>
